<?xml version="1.0" encoding="UTF-8" standalone="no"?>
<!-- Created with Inkscape (http://www.inkscape.org/) -->

<svg
   xmlns:dc="http://purl.org/dc/elements/1.1/"
   xmlns:cc="http://creativecommons.org/ns#"
   xmlns:rdf="http://www.w3.org/1999/02/22-rdf-syntax-ns#"
   xmlns:svg="http://www.w3.org/2000/svg"
   xmlns="http://www.w3.org/2000/svg"
   xmlns:sodipodi="http://sodipodi.sourceforge.net/DTD/sodipodi-0.dtd"
   xmlns:inkscape="http://www.inkscape.org/namespaces/inkscape"
   version="1.1"
   id="svg235"
   xml:space="preserve"
   width="918.71539"
   height="637.9173"
   viewBox="0 0 918.71539 637.9173"
   sodipodi:docname="wasp_robot_bg.svg"
   inkscape:version="0.92.3 (2405546, 2018-03-11)"><metadata
     id="metadata241"><rdf:RDF><cc:Work
         rdf:about=""><dc:format>image/svg+xml</dc:format><dc:type
           rdf:resource="http://purl.org/dc/dcmitype/StillImage" /><dc:title></dc:title></cc:Work></rdf:RDF></metadata><defs
     id="defs239" /><sodipodi:namedview
     pagecolor="#ffffff"
     bordercolor="#666666"
     borderopacity="1"
     objecttolerance="10"
     gridtolerance="10"
     guidetolerance="10"
     inkscape:pageopacity="0"
     inkscape:pageshadow="2"
     inkscape:window-width="1920"
     inkscape:window-height="1052"
     id="namedview237"
     showgrid="false"
     inkscape:zoom="0.1475"
     inkscape:cx="463.77986"
     inkscape:cy="288.43864"
     inkscape:window-x="1920"
     inkscape:window-y="0"
     inkscape:window-maximized="1"
     inkscape:current-layer="g243"
     fit-margin-top="0"
     fit-margin-left="0"
     fit-margin-right="0"
     fit-margin-bottom="0" /><g
     id="g243"
     inkscape:groupmode="layer"
     inkscape:label="ink_ext_XXXXXX"
     transform="matrix(1.3333333,0,0,-1.3333333,-336.22014,1149.4786)"><g
       id="g1187"><path
         d="m 650.724,664.798 c -85.797,58.126 -248.679,179.45 -228.783,192.739 4.833,3.228 12.053,4.572 20.736,4.572 19.371,0 46.007,-6.692 69.588,-14.097 -0.298,-0.372 -0.295,-0.916 0.031,-1.286 L 666.768,671.397 c -5.569,-1.541 -11.021,-3.743 -16.044,-6.599 m 18.211,7.165 -154.502,175.364 c 22.588,-7.19 42.033,-14.875 49.022,-17.661 12.508,-4.988 82.178,-100.018 117.625,-155.766 -4.014,-0.301 -8.105,-0.948 -12.145,-1.937"
         style="fill:#fbfce9;fill-opacity:1;fill-rule:nonzero;stroke:none;stroke-width:0.1"
         id="path249"
         inkscape:connector-curvature="0" /><path
         d="m 701.017,633.037 c -0.277,0 -0.553,0.114 -0.75,0.338 L 512.296,846.726 c -0.365,0.415 -0.325,1.046 0.089,1.412 0.414,0.366 1.047,0.325 1.412,-0.09 l 187.97,-213.35 c 0.365,-0.415 0.325,-1.047 -0.089,-1.412 -0.191,-0.167 -0.426,-0.249 -0.661,-0.249"
         style="fill:#512336;fill-opacity:1;fill-rule:nonzero;stroke:none;stroke-width:0.1"
         id="path251"
         inkscape:connector-curvature="0" /><path
         d="m 550.448,803.278 -0.046,10e-4 -90.444,4.041 c -0.551,0.025 -0.979,0.492 -0.954,1.044 0.025,0.552 0.508,0.969 1.043,0.954 l 90.444,-4.041 c 0.552,-0.025 0.979,-0.491 0.955,-1.043 -0.024,-0.537 -0.467,-0.956 -0.998,-0.956"
         style="fill:#512336;fill-opacity:1;fill-rule:nonzero;stroke:none;stroke-width:0.1"
         id="path253"
         inkscape:connector-curvature="0" /><path
         d="m 543.458,741.281 c -0.404,0 -0.784,0.247 -0.936,0.648 -0.194,0.517 0.067,1.093 0.584,1.288 l 45.383,17.092 c 0.517,0.192 1.093,-0.067 1.288,-0.584 0.195,-0.517 -0.067,-1.094 -0.583,-1.288 l -45.383,-17.092 c -0.116,-0.043 -0.235,-0.064 -0.353,-0.064"
         style="fill:#512336;fill-opacity:1;fill-rule:nonzero;stroke:none;stroke-width:0.1"
         id="path255"
         inkscape:connector-curvature="0" /><path
         d="m 602.938,697.663 c -0.355,0 -0.699,0.189 -0.88,0.523 -0.264,0.485 -0.084,1.092 0.401,1.356 l 26.584,14.43 c 0.488,0.262 1.092,0.084 1.356,-0.402 0.264,-0.485 0.084,-1.092 -0.401,-1.356 l -26.584,-14.43 c -0.152,-0.082 -0.315,-0.121 -0.476,-0.121"
         style="fill:#512336;fill-opacity:1;fill-rule:nonzero;stroke:none;stroke-width:0.1"
         id="path257"
         inkscape:connector-curvature="0" /><path
         d="m 940.049,694.028 c -0.097,-10e-4 -0.195,0.012 -0.292,0.037 l -94.866,24.749 -74.886,-18.231 c -0.62,-0.148 -1.243,0.228 -1.394,0.847 -0.15,0.619 0.229,1.243 0.849,1.394 l 75.169,18.3 c 0.183,0.045 0.38,0.044 0.562,-0.005 l 95.148,-24.822 c 0.616,-0.161 0.986,-0.791 0.825,-1.407 -0.136,-0.519 -0.604,-0.862 -1.115,-0.862"
         style="fill:#512336;fill-opacity:1;fill-rule:nonzero;stroke:none;stroke-width:0.1"
         id="path259"
         inkscape:connector-curvature="0" /><path
         d="m 892.401,603.95 c -25.147,-19.763 -206.429,61.011 -184.89,89.74 21.54,28.728 87.962,28.728 87.962,28.728 4.335,-0.242 9.72,-2.208 15.724,-5.493 2.369,-1.265 4.82,-2.746 7.351,-4.415 14.807,-9.72 32.04,-25.498 46.552,-42.164 2.019,-2.315 3.985,-4.658 5.896,-7 20.247,-24.932 32.956,-50.322 21.405,-59.396"
         style="fill:#f78d15;fill-opacity:1;fill-rule:nonzero;stroke:none;stroke-width:0.1"
         id="path261"
         inkscape:connector-curvature="0" /><path
         d="m 879.411,600.873 c -34.504,-0.004 -116.308,33.828 -154.016,62.641 v 0 c 37.708,-28.813 119.512,-62.641 154.016,-62.641 5.821,0 10.301,0.964 12.99,3.077 0.011,0.009 0.022,0.017 0.032,0.025 -0.011,-0.008 -0.021,-0.016 -0.032,-0.025 -2.689,-2.113 -7.169,-3.077 -12.99,-3.077 m 13.044,3.12 c 0.003,0.002 0.005,0.004 0.009,0.007 -0.003,-0.003 -0.006,-0.005 -0.009,-0.007 m 0.037,0.029 c 0.001,10e-4 0.001,10e-4 0.002,0.002 -10e-4,-10e-4 -10e-4,-10e-4 -0.002,-0.002 m 3.194,4.194 c 0.562,1.303 0.9,2.749 1.034,4.32 0.005,0.001 0.011,0.002 0.016,0.003 -0.142,-1.571 -0.486,-3.019 -1.05,-4.323"
         style="fill:#f9c372;fill-opacity:1;fill-rule:nonzero;stroke:none;stroke-width:0.1"
         id="path263"
         inkscape:connector-curvature="0" /><path
         d="m 879.411,600.873 c -34.504,0 -116.308,33.828 -154.016,62.641 0.159,0.615 0.245,1.261 0.245,1.926 0,0.89 -0.15,1.74 -0.44,2.53 -1.03,2.97 -3.86,5.1 -7.18,5.1 -1.071,0 -2.089,-0.22 -3.013,-0.617 -5.883,5.876 -9.274,11.322 -9.27,15.966 0.002,1.9 0.572,3.668 1.774,5.271 2.773,3.688 6.3,6.919 10.312,9.719 -12.96,-26.666 125.104,-91.302 172.813,-91.308 2.238,-10e-4 4.268,0.141 6.084,0.435 -0.134,-1.571 -0.472,-3.017 -1.034,-4.32 -0.707,-1.633 -1.759,-3.042 -3.192,-4.192 -10e-4,-10e-4 -10e-4,-10e-4 -0.002,-0.002 -0.009,-0.007 -0.019,-0.015 -0.028,-0.022 -0.004,-0.003 -0.006,-0.005 -0.009,-0.007 -0.007,-0.006 -0.015,-0.012 -0.022,-0.018 -0.01,-0.008 -0.021,-0.016 -0.032,-0.025 -2.689,-2.113 -7.169,-3.077 -12.99,-3.077"
         style="fill:#f36817;fill-opacity:1;fill-rule:nonzero;stroke:none;stroke-width:0.1"
         id="path265"
         inkscape:connector-curvature="0" /><path
         d="m 804.274,647.489 c -15.854,0 -30.813,4.332 -40.895,17.257 -17.017,21.815 27.679,43.806 47.818,52.179 2.369,-1.265 4.82,-2.746 7.351,-4.415 13.198,-8.663 28.323,-22.14 41.73,-36.768 -0.631,0.688 -1.266,1.372 -1.906,2.054 -12.921,13.83 -27.25,26.451 -39.82,34.71 -12.34,-3.56 -27.71,-9.21 -38.39,-16.77 -7.64,-5.42 -12.878,-11.822 -12.881,-19.149 -10e-4,-3.108 0.94,-6.383 3.04,-9.82 5.231,-8.557 15.868,-11.702 28.689,-11.702 17.516,0 39.108,5.877 56.515,11.847 1.515,-1.794 3.082,-3.729 4.629,-5.789 0.332,-0.431 0.658,-0.862 0.978,-1.29 -14.853,-5.26 -36.587,-12.344 -56.858,-12.344 m 64.045,14.913 c -0.7,1.069 -1.456,2.14 -2.269,3.201 -1.046,1.388 -2.134,2.687 -3.24,3.894 0.776,0.285 1.542,0.569 2.292,0.849 2.017,-2.316 3.983,-4.658 5.894,-7 -0.839,-0.292 -1.733,-0.608 -2.677,-0.944"
         style="fill:#f36817;fill-opacity:1;fill-rule:nonzero;stroke:none;stroke-width:0.1"
         id="path267"
         inkscape:connector-curvature="0" /><path
         d="m 865.102,670.346 c -29.81,-11.15 -81.02,-26.09 -94.781,-3.579 -7.05,11.54 -1.04,21.25 9.841,28.969 10.68,7.56 26.05,13.21 38.39,16.77 12.57,-8.259 26.899,-20.88 39.82,-34.71 2.3,-2.45 4.54,-4.94 6.73,-7.45"
         style="fill:#512336;fill-opacity:1;fill-rule:nonzero;stroke:none;stroke-width:0.1"
         id="path269"
         inkscape:connector-curvature="0" /><path
         d="m 799.01,655.065 c -12.821,0 -23.458,3.145 -28.689,11.702 -2.1,3.437 -3.041,6.712 -3.04,9.82 0.003,7.327 5.241,13.729 12.881,19.149 -1.61,-9.41 -2.65,-29.739 18.039,-31.27 1.347,-0.099 2.734,-0.147 4.149,-0.147 14.956,0 33.295,5.283 46.652,9.986 1.857,-2.07 4.125,-4.555 6.523,-7.393 -17.407,-5.97 -38.999,-11.847 -56.515,-11.847 m 63.8,14.432 c -2.601,2.841 -5.302,5.178 -7.809,6.999 1.195,0.452 2.321,0.887 3.371,1.3 2.3,-2.45 4.54,-4.94 6.73,-7.45 -0.75,-0.28 -1.516,-0.564 -2.292,-0.849"
         style="fill:#371923;fill-opacity:1;fill-rule:nonzero;stroke:none;stroke-width:0.1"
         id="path271"
         inkscape:connector-curvature="0" /><path
         d="m 809.824,678.881 c 0,-5.948 -4.822,-10.77 -10.77,-10.77 -5.948,0 -10.77,4.822 -10.77,10.77 0,5.948 4.822,10.77 10.77,10.77 5.948,0 10.77,-4.822 10.77,-10.77"
         style="fill:#f9f9f8;fill-opacity:1;fill-rule:nonzero;stroke:none;stroke-width:0.1"
         id="path273"
         inkscape:connector-curvature="0" /><path
         d="m 799.054,689.074 c -5.62,0 -10.194,-4.573 -10.194,-10.193 0,-5.621 4.574,-10.193 10.194,-10.193 5.621,0 10.193,4.572 10.193,10.193 0,5.62 -4.572,10.193 -10.193,10.193 z m 0,-21.539 c -6.256,0 -11.346,5.09 -11.346,11.346 0,6.257 5.09,11.347 11.346,11.347 6.257,0 11.346,-5.09 11.346,-11.347 0,-6.256 -5.089,-11.346 -11.346,-11.346"
         style="fill:#512336;fill-opacity:1;fill-rule:nonzero;stroke:none;stroke-width:0.1"
         id="path275"
         inkscape:connector-curvature="0" /><path
         d="m 758.331,693.401 c -6.134,0 -11.106,4.499 -11.106,10.049 0,0.374 0.022,0.743 0.066,1.106 1.332,0.51 2.696,1.016 4.088,1.512 5.184,1.902 10.156,3.447 14.519,4.737 2.178,-1.834 3.54,-4.451 3.54,-7.355 0,-5.55 -4.973,-10.049 -11.107,-10.049"
         style="fill:#f36817;fill-opacity:1;fill-rule:nonzero;stroke:none;stroke-width:0.1"
         id="path277"
         inkscape:connector-curvature="0" /><path
         d="m 768.091,702.776 c 0,-2.522 -2.26,-4.567 -5.048,-4.567 -2.788,0 -5.049,2.045 -5.049,4.567 0,2.523 2.261,4.568 5.049,4.568 2.788,0 5.048,-2.045 5.048,-4.568"
         style="fill:#361b25;fill-opacity:1;fill-rule:nonzero;stroke:none;stroke-width:0.1"
         id="path279"
         inkscape:connector-curvature="0" /><path
         d="m 762.399,700.613 c -0.424,0 -0.833,0.236 -1.035,0.642 -0.282,0.571 -0.048,1.262 0.523,1.545 l 69.331,34.329 c 0.171,0.084 0.364,0.122 0.551,0.12 l 98.274,-3.366 c 0.636,-0.022 1.135,-0.556 1.112,-1.193 -0.021,-0.636 -0.551,-1.138 -1.191,-1.113 l -97.984,3.357 -69.07,-34.201 c -0.165,-0.081 -0.34,-0.12 -0.511,-0.12"
         style="fill:#512336;fill-opacity:1;fill-rule:nonzero;stroke:none;stroke-width:0.1"
         id="path281"
         inkscape:connector-curvature="0" /><path
         d="m 722.117,694.528 c -0.36,0 -0.602,0.087 -0.719,0.274 -1.096,1.628 10.234,12.062 27.463,18.229 10.143,3.705 19.659,4.954 25.795,4.954 4.263,0 6.894,-0.602 6.975,-1.403 0.196,-1.413 -6.362,-3.006 -15.733,-5.777 -1.983,1.671 -4.643,2.693 -7.567,2.693 -5.721,0 -10.431,-3.912 -11.04,-8.942 -12.68,-4.852 -22.404,-10.028 -25.174,-10.028"
         style="fill:#f9b85b;fill-opacity:1;fill-rule:nonzero;stroke:none;stroke-width:0.1"
         id="path283"
         inkscape:connector-curvature="0" /><path
         d="m 747.291,704.556 c 0.609,5.03 5.319,8.942 11.04,8.942 2.924,0 5.584,-1.022 7.567,-2.693 -4.363,-1.29 -9.335,-2.835 -14.519,-4.737 -1.392,-0.496 -2.756,-1.002 -4.088,-1.512"
         style="fill:#f6a155;fill-opacity:1;fill-rule:nonzero;stroke:none;stroke-width:0.1"
         id="path285"
         inkscape:connector-curvature="0" /><path
         d="m 874.883,640.687 c -1.918,0 -6.335,9.213 -13.751,19.146 2.628,0.93 5.036,1.802 7.187,2.569 6.867,-10.487 8.401,-20.881 6.818,-21.653 -0.08,-0.041 -0.164,-0.062 -0.254,-0.062"
         style="fill:#f9b85b;fill-opacity:1;fill-rule:nonzero;stroke:none;stroke-width:0.1"
         id="path287"
         inkscape:connector-curvature="0" /><path
         d="m 861.132,659.833 c -0.32,0.428 -0.646,0.859 -0.978,1.29 -1.547,2.06 -3.114,3.995 -4.629,5.789 2.527,0.866 4.96,1.733 7.285,2.585 1.106,-1.207 2.194,-2.506 3.24,-3.894 0.813,-1.061 1.569,-2.132 2.269,-3.201 -2.151,-0.767 -4.559,-1.639 -7.187,-2.569"
         style="fill:#f6a155;fill-opacity:1;fill-rule:nonzero;stroke:none;stroke-width:0.1"
         id="path289"
         inkscape:connector-curvature="0" /><path
         d="m 849.002,674.305 c -3.218,3.588 -5.198,5.93 -4.466,6.708 0.139,0.156 0.396,0.234 0.756,0.234 1.633,0 5.38,-1.605 9.709,-4.751 -1.849,-0.699 -3.86,-1.438 -5.999,-2.191"
         style="fill:#937084;fill-opacity:1;fill-rule:nonzero;stroke:none;stroke-width:0.1"
         id="path291"
         inkscape:connector-curvature="0" /><path
         d="m 855.525,666.912 c -2.398,2.838 -4.666,5.323 -6.523,7.393 2.139,0.753 4.15,1.492 5.999,2.191 2.507,-1.821 5.208,-4.158 7.809,-6.999 -2.325,-0.852 -4.758,-1.719 -7.285,-2.585"
         style="fill:#816876;fill-opacity:1;fill-rule:nonzero;stroke:none;stroke-width:0.1"
         id="path293"
         inkscape:connector-curvature="0" /><path
         d="m 727.846,633.708 c -1.858,-45.772 -83.627,-82.281 -100.025,-28.701 -19.735,64.619 68.119,84.274 89.767,57.43 7.646,-9.504 10.662,-19.305 10.258,-28.729"
         style="fill:#f78d15;fill-opacity:1;fill-rule:nonzero;stroke:none;stroke-width:0.1"
         id="path295"
         inkscape:connector-curvature="0" /><path
         d="m 638.588,635.398 c -0.347,0 -0.405,0.488 -0.178,1.603 0,0 0.679,2.568 2.781,6.151 1.869,-0.256 3.697,-0.501 5.45,-0.732 -4.511,-3.96 -7.185,-7.022 -8.053,-7.022 m 25.661,18.766 c -2.052,1.375 -4.285,2.834 -6.67,4.358 7.203,3.82 16.98,6.607 30.173,6.607 1.61,0 3.265,-0.041 4.978,-0.127 9.211,-0.463 -9.892,-3.415 -24.798,-9.257 -1.269,-0.497 -2.497,-1.026 -3.683,-1.581"
         style="fill:#f9b85b;fill-opacity:1;fill-rule:nonzero;stroke:none;stroke-width:0.1"
         id="path297"
         inkscape:connector-curvature="0" /><path
         d="m 663.286,578.388 c -5.017,0 -9.855,0.784 -14.307,2.466 -0.2,1.61 -1.315,3.033 -2.964,3.546 -0.422,0.132 -0.849,0.194 -1.269,0.194 -0.742,0 -1.461,-0.195 -2.091,-0.549 -6.564,4.259 -11.808,11.076 -14.834,20.962 0,0 12.604,-4.973 30.384,-4.973 20.161,-10e-4 46.978,6.391 69.641,33.674 -0.584,-14.39 -9.068,-27.864 -20.935,-37.912 -0.689,1.047 -1.846,1.634 -3.039,1.634 -0.586,0 -1.181,-0.142 -1.733,-0.442 -1.765,-0.96 -2.417,-3.168 -1.458,-4.932 0.136,-0.25 0.296,-0.477 0.477,-0.681 -5.85,-4.077 -12.267,-7.358 -18.807,-9.602 -0.058,2.304 -1.943,4.154 -4.261,4.154 -2.355,0 -4.264,-1.909 -4.264,-4.264 0,-0.759 0.199,-1.472 0.546,-2.089 -3.735,-0.776 -7.458,-1.186 -11.086,-1.186"
         style="fill:#f36817;fill-opacity:1;fill-rule:nonzero;stroke:none;stroke-width:0.1"
         id="path299"
         inkscape:connector-curvature="0" /><path
         d="m 625.58,572.751 c -3.474,-27.679 -18.713,-49.892 -38.394,-66.504 -9.235,-7.808 -19.44,-14.377 -29.86,-19.708 -24.394,-12.52 -49.971,-18.201 -66.961,-16.935 -2.639,0.188 -5.277,0.403 -7.916,0.645 l -0.242,0.027 c -16.047,1.427 -32.148,3.5 -47.764,5.708 l -0.862,0.108 c -24.985,3.554 -48.652,7.485 -68.684,9.827 -6.489,0.781 -12.601,1.374 -18.228,1.724 -12.87,0.861 -22.658,0.114 -29.739,-2.255 5.385,9.531 10.112,18.921 15.55,27.456 l 0.108,0.161 c 19.493,30.613 39.256,54.98 58.776,74.15 12.251,12.09 24.42,22.105 36.375,30.371 v 0.027 c 23.424,16.263 46.068,25.821 67.042,30.856 12.924,3.123 25.228,4.496 36.698,4.657 50.51,0.754 85,-22.05 86.32,-25.497 7.727,-20.167 9.801,-38.421 7.781,-54.818"
         style="fill:#f78d15;fill-opacity:1;fill-rule:nonzero;stroke:none;stroke-width:0.1"
         id="path301"
         inkscape:connector-curvature="0" /><path
         d="m 587.186,506.247 c -9.235,-7.808 -19.44,-14.377 -29.86,-19.708 -5.358,6.731 -10.258,13.301 -14.781,19.735 -45.072,64.188 -50.376,113.595 -47.764,142.135 12.924,3.123 25.228,4.496 36.698,4.657 10.527,-55.06 30.128,-100.078 46.579,-130.691 3.204,-5.923 6.274,-11.308 9.128,-16.128"
         style="fill:#512336;fill-opacity:1;fill-rule:nonzero;stroke:none;stroke-width:0.1"
         id="path303"
         inkscape:connector-curvature="0" /><path
         d="m 482.449,470.249 -0.242,0.027 -47.764,5.708 -0.862,0.108 c -6.919,10.474 -12.789,20.516 -17.743,30.129 -16.72,32.417 -22.967,59.745 -24.474,80.934 12.251,12.09 24.42,22.105 36.375,30.371 8.589,-46.848 23.801,-86.535 38.313,-116.502 5.735,-11.82 11.362,-22.132 16.397,-30.775"
         style="fill:#512336;fill-opacity:1;fill-rule:nonzero;stroke:none;stroke-width:0.1"
         id="path305"
         inkscape:connector-curvature="0" /><path
         d="m 364.897,485.919 c -19.036,-6.758 -57.322,-48.518 -70.192,-65.668 0.081,1.373 -0.047,2.785 0.296,4.119 10.473,40.745 26.158,74.826 43.12,96.912 7.207,-19.491 9.946,-25.131 16.626,-29.035 3.314,-1.938 11.012,-6.005 10.15,-6.328"
         style="fill:#512336;fill-opacity:1;fill-rule:nonzero;stroke:none;stroke-width:0.1"
         id="path307"
         inkscape:connector-curvature="0" /><path
         d="m 495.219,469.431 c -1.685,0 -3.305,0.057 -4.854,0.173 -2.639,0.188 -5.277,0.403 -7.916,0.645 v 0 c -5.035,8.643 -10.662,18.955 -16.397,30.775 8.989,-0.905 17.777,-1.385 26.345,-1.385 17.685,-0.001 34.441,2.047 50.148,6.635 v 0 c 4.523,-6.434 9.423,-13.004 14.781,-19.735 -22.169,-11.379 -45.318,-17.108 -62.107,-17.108 m -13.012,0.845 c -16.047,1.427 -32.148,3.5 -47.764,5.708 l 47.764,-5.708 m -48.626,5.816 c -24.985,3.554 -48.652,7.485 -68.684,9.827 0.862,0.323 -6.836,4.39 -10.15,6.328 16.223,8.407 36.28,13.974 60.917,13.974 0.058,0 0.116,0 0.174,0 v 0 c 4.954,-9.613 10.824,-19.655 17.743,-30.129 m 153.605,30.155 c -2.854,4.82 -5.924,10.205 -9.128,16.128 17.878,11.551 33.817,27.975 47.522,50.376 -3.474,-27.679 -18.713,-49.892 -38.394,-66.504 v 0"
         style="fill:#f36817;fill-opacity:1;fill-rule:nonzero;stroke:none;stroke-width:0.1"
         id="path309"
         inkscape:connector-curvature="0" /><path
         d="m 557.326,486.539 v 0 c -5.358,6.731 -10.258,13.301 -14.781,19.735 12.547,3.635 24.393,8.939 35.513,16.101 v 0 c 3.204,-5.923 6.274,-11.308 9.128,-16.128 v 0 c -9.235,-7.808 -19.44,-14.377 -29.86,-19.708"
         style="fill:#501d1f;fill-opacity:1;fill-rule:nonzero;stroke:none;stroke-width:0.1"
         id="path311"
         inkscape:connector-curvature="0" /><path
         d="m 482.449,470.249 -0.242,0.027 -47.764,5.708 -0.862,0.108 v 0 c -6.919,10.474 -12.789,20.516 -17.743,30.129 9.208,0 19.09,-0.782 29.644,-2.504 6.974,-1.131 13.839,-2.047 20.57,-2.693 v 0 c 5.735,-11.82 11.362,-22.132 16.397,-30.775 v 0"
         style="fill:#501d1f;fill-opacity:1;fill-rule:nonzero;stroke:none;stroke-width:0.1"
         id="path313"
         inkscape:connector-curvature="0" /><path
         d="m 294.705,420.251 c 0.081,1.373 0.189,2.746 0.296,4.119 6.839,16.72 22.024,44.748 51.668,63.273 2.585,1.615 5.277,3.15 8.078,4.604 v 0 c 3.314,-1.938 11.012,-6.005 10.15,-6.328 v 0 c -19.036,-6.758 -57.322,-48.518 -70.192,-65.668"
         style="fill:#501d1f;fill-opacity:1;fill-rule:nonzero;stroke:none;stroke-width:0.1"
         id="path315"
         inkscape:connector-curvature="0" /><path
         d="m 364.486,526.211 c -1.318,0 -1.54,1.892 -0.675,6.216 0,0 6.022,23.236 28.146,48.256 0.876,-7.849 2.405,-16.439 4.833,-25.725 -18.172,-16.083 -28.896,-28.747 -32.304,-28.747 m 70.728,57.914 c -2.324,8.786 -4.45,17.9 -6.314,27.311 17.16,10.458 38.614,19.4 65.333,24.755 -10e-4,-7.039 0.519,-14.944 1.846,-23.661 -6.78,-2.321 -13.538,-4.789 -20.082,-7.407 -15.136,-6.054 -28.724,-13.336 -40.783,-20.998 m 102.5,41.212 c -1.33,5.14 -2.588,10.38 -3.767,15.731 5.613,0.296 11.392,0.448 17.368,0.448 6.117,0 12.408,-0.16 18.917,-0.494 22.379,-1.147 0.778,-6.239 -32.518,-15.685"
         style="fill:#f9b85b;fill-opacity:1;fill-rule:nonzero;stroke:none;stroke-width:0.1"
         id="path317"
         inkscape:connector-curvature="0" /><path
         d="m 496.079,612.53 c -1.327,8.717 -1.847,16.622 -1.846,23.661 12.122,2.43 25.333,4.119 39.714,4.877 1.179,-5.351 2.437,-10.591 3.767,-15.731 -12.765,-3.621 -27.251,-7.883 -41.635,-12.807"
         style="fill:#937084;fill-opacity:1;fill-rule:nonzero;stroke:none;stroke-width:0.1"
         id="path319"
         inkscape:connector-curvature="0" /><path
         d="m 396.79,554.958 c -2.428,9.286 -3.957,17.876 -4.833,25.725 9.249,10.46 21.322,21.233 36.943,30.753 1.864,-9.411 3.99,-18.525 6.314,-27.311 -15.248,-9.688 -28.052,-19.987 -38.424,-29.167"
         style="fill:#937084;fill-opacity:1;fill-rule:nonzero;stroke:none;stroke-width:0.1"
         id="path321"
         inkscape:connector-curvature="0" /><path
         d="m 311.487,458.15 c -0.054,0 -0.102,0.016 -0.145,0.047 -2.82,2.081 16.805,42.797 16.805,42.797 1.924,3.303 2.999,4.712 3.422,4.712 1.229,0 -3.046,-11.89 -8.001,-23.778 -4.956,-11.889 -10.591,-23.778 -12.081,-23.778"
         style="fill:#937084;fill-opacity:1;fill-rule:nonzero;stroke:none;stroke-width:0.1"
         id="path323"
         inkscape:connector-curvature="0" /><path
         d="m 469.705,517.365 c -2.783,0 -5.36,1.796 -6.235,4.585 l -6.68,21.281 c -0.07,0.209 -0.12,0.419 -0.16,0.629 -0.73,-0.41 -1.39,-0.92 -1.97,-1.53 v 0 l -0.07,0.21 c -0.71,2.26 -0.49,4.65 0.6,6.75 1.1,2.09 2.94,3.64 5.2,4.34 l 47.82,15.002 c 0.282,-0.715 0.567,-1.427 0.859,-2.147 L 461.08,551.43 c -1.67,-0.52 -3.04,-1.66 -3.84,-3.21 -0.71,-1.35 -0.92,-2.88 -0.61,-4.36 0.04,-0.21 0.09,-0.42 0.16,-0.629 l 6.68,-21.281 c 0.875,-2.789 3.452,-4.585 6.235,-4.585 0.65,0 1.311,0.099 1.965,0.305 l 53.071,16.644 v 0 L 471.67,517.67 c -0.654,-0.206 -1.315,-0.304 -1.965,-0.305 m 95.989,29.792 v 0 l 6.896,2.163 c 1.54,0.49 2.78,1.5 3.58,2.77 0.98,1.57 1.3,3.53 0.7,5.43 l -6.67,21.28 c -0.53,1.67 -1.67,3.03 -3.21,3.84 -0.95,0.5 -1.99,0.75 -3.03,0.75 -0.65,0 -1.32,-0.1 -1.96,-0.3 l -9.98,-3.131 c -0.268,0.72 -0.534,1.439 -0.801,2.165 l 10.091,3.166 c 0.87,0.275 1.762,0.41 2.65,0.41 1.409,0 2.808,-0.341 4.09,-1.009 2.1,-1.101 3.64,-2.941 4.35,-5.201 l 6.67,-21.28 c 1,-3.18 0.1,-6.52 -2.07,-8.78 v 0 l -0.83,2.66 c -0.8,-1.27 -2.04,-2.28 -3.58,-2.77 l -6.896,-2.163"
         style="fill:#4e1914;fill-opacity:1;fill-rule:nonzero;stroke:none;stroke-width:0.1"
         id="path325"
         inkscape:connector-curvature="0" /><path
         d="m 509.069,566.485 c -0.292,0.72 -0.577,1.432 -0.859,2.147 l 43.009,13.492 c 0.267,-0.726 0.533,-1.445 0.801,-2.165 l -42.951,-13.474"
         style="fill:#1e1314;fill-opacity:1;fill-rule:nonzero;stroke:none;stroke-width:0.1"
         id="path327"
         inkscape:connector-curvature="0" /><path
         d="m 467.71,506.06 c -1.675,0 -3.298,0.48 -4.689,1.347 -2.594,5.573 -5.195,11.448 -7.76,17.612 l -2.671,8.521 c -0.71,2.26 -0.49,4.65 0.6,6.75 0.4,0.75 0.89,1.441 1.47,2.04 v 0 l 6.6,-21.07 c 1.19,-3.779 4.69,-6.2 8.45,-6.2 0.88,0 1.77,0.13 2.65,0.41 l 53.553,16.795 c 1.343,-2.327 2.743,-4.684 4.194,-7.057 L 470.36,506.47 c -0.88,-0.28 -1.77,-0.41 -2.65,-0.41 m 102.45,31.709 c -1.157,2.363 -2.321,4.793 -3.485,7.28 l 6.605,2.071 c 1.46,0.46 2.73,1.27 3.72,2.31 v 0 l 0.07,-0.22 c 1.46,-4.65 -1.14,-9.63 -5.79,-11.09 l -1.12,-0.351"
         style="fill:#f36218;fill-opacity:1;fill-rule:nonzero;stroke:none;stroke-width:0.1"
         id="path329"
         inkscape:connector-curvature="0" /><path
         d="m 530.107,525.208 c -1.451,2.373 -2.851,4.73 -4.194,7.057 l 40.762,12.784 c 1.164,-2.487 2.328,-4.917 3.485,-7.28 l -40.053,-12.561"
         style="fill:#501b1d;fill-opacity:1;fill-rule:nonzero;stroke:none;stroke-width:0.1"
         id="path331"
         inkscape:connector-curvature="0" /><path
         d="m 463.021,507.407 c -1.731,1.079 -3.101,2.757 -3.761,4.853 l -3.999,12.759 c 2.565,-6.164 5.166,-12.039 7.76,-17.612"
         style="fill:#501b1d;fill-opacity:1;fill-rule:nonzero;stroke:none;stroke-width:0.1"
         id="path333"
         inkscape:connector-curvature="0" /><path
         d="m 469.71,515.06 c -3.76,0 -7.26,2.421 -8.45,6.2 l -6.6,21.07 c 0.58,0.61 1.24,1.12 1.97,1.53 0.04,-0.21 0.09,-0.42 0.16,-0.629 l 6.68,-21.281 c 0.875,-2.789 3.452,-4.585 6.235,-4.585 0.65,10e-4 1.311,0.099 1.965,0.305 l 53.071,16.644 c 0.388,-0.684 0.775,-1.361 1.172,-2.049 L 472.36,515.47 c -0.88,-0.28 -1.77,-0.41 -2.65,-0.41 m 96.965,29.989 c -0.328,0.699 -0.654,1.399 -0.981,2.108 l 6.896,2.163 c 1.54,0.49 2.78,1.5 3.58,2.77 l 0.83,-2.66 c -0.99,-1.04 -2.26,-1.85 -3.72,-2.31 l -6.605,-2.071"
         style="fill:#4c1714;fill-opacity:1;fill-rule:nonzero;stroke:none;stroke-width:0.1"
         id="path335"
         inkscape:connector-curvature="0" /><path
         d="m 525.913,532.265 c -0.397,0.688 -0.784,1.365 -1.172,2.049 l 40.953,12.843 c 0.327,-0.709 0.653,-1.409 0.981,-2.108 l -40.762,-12.784"
         style="fill:#1e1313;fill-opacity:1;fill-rule:nonzero;stroke:none;stroke-width:0.1"
         id="path337"
         inkscape:connector-curvature="0" /><path
         d="m 671.683,635.146 c -2.618,0 -4.927,1.318 -6.301,3.327 1.224,-0.838 2.705,-1.327 4.301,-1.327 2.186,0 4.157,0.919 5.548,2.392 0.327,-0.007 0.634,-0.01 0.926,-0.01 1.064,0 1.897,0.045 2.494,0.136 -1.19,-2.663 -3.862,-4.518 -6.968,-4.518 m 7.611,7.107 c -0.454,0.616 -1.124,1.336 -1.992,2.146 0.006,0.124 0.009,0.249 0.009,0.375 0,1.596 -0.489,3.077 -1.327,4.302 2.009,-1.374 3.327,-3.684 3.327,-6.302 0,-0.175 -0.005,-0.349 -0.017,-0.521"
         style="fill:#f04e1c;fill-opacity:1;fill-rule:nonzero;stroke:none;stroke-width:0.1"
         id="path339"
         inkscape:connector-curvature="0" /><path
         d="m 603.196,383.671 c -0.188,0 -0.38,0.047 -0.556,0.145 -0.558,0.307 -0.761,1.008 -0.452,1.566 l 9.574,17.32 0.182,0.246 22.739,23.385 c 0.444,0.455 1.174,0.468 1.63,0.023 0.456,-0.444 0.466,-1.174 0.023,-1.631 l -22.63,-23.273 -9.5,-17.185 c -0.211,-0.381 -0.603,-0.596 -1.01,-0.596"
         style="fill:#512336;fill-opacity:1;fill-rule:nonzero;stroke:none;stroke-width:0.1"
         id="path341"
         inkscape:connector-curvature="0" /><path
         d="m 682.352,581.663 c 0,-2.354 -1.908,-4.263 -4.262,-4.263 -2.355,0 -4.264,1.909 -4.264,4.263 0,2.355 1.909,4.264 4.264,4.264 2.354,0 4.262,-1.909 4.262,-4.264"
         style="fill:#512336;fill-opacity:1;fill-rule:nonzero;stroke:none;stroke-width:0.1"
         id="path343"
         inkscape:connector-curvature="0" /><path
         d="m 682.577,509.864 c 0,-2.353 -1.909,-4.262 -4.264,-4.262 -2.353,0 -4.262,1.909 -4.262,4.262 0,2.355 1.909,4.264 4.262,4.264 2.355,0 4.264,-1.909 4.264,-4.264"
         style="fill:#512336;fill-opacity:1;fill-rule:nonzero;stroke:none;stroke-width:0.1"
         id="path345"
         inkscape:connector-curvature="0" /><path
         d="m 657.223,449.733 c 0,-2.354 -1.908,-4.262 -4.263,-4.262 -2.355,0 -4.263,1.908 -4.263,4.262 0,2.355 1.908,4.263 4.263,4.263 2.355,0 4.263,-1.908 4.263,-4.263"
         style="fill:#512336;fill-opacity:1;fill-rule:nonzero;stroke:none;stroke-width:0.1"
         id="path347"
         inkscape:connector-curvature="0" /><path
         d="m 689.569,566.954 c 0.379,-13.9 1.385,-27.775 2.186,-41.658 0.358,-5.927 -3.82,-11.162 -9.326,-11.334 -2.976,-0.078 -5.952,-0.078 -8.929,10e-4 -5.48,0.175 -9.656,5.405 -9.3,11.333 0.801,13.883 1.807,27.757 2.186,41.658 0.179,5.949 3.668,10.765 8.022,10.766 2.373,0 4.745,0 7.118,0 4.374,0.002 7.863,-4.818 8.043,-10.766"
         style="fill:#512336;fill-opacity:1;fill-rule:nonzero;stroke:none;stroke-width:0.1"
         id="path349"
         inkscape:connector-curvature="0" /><path
         d="m 679.658,513.912 c -10e-4,0 -10e-4,0 -10e-4,0 0.509,0.005 1.019,0.012 1.528,0.022 -0.509,-0.01 -1.018,-0.017 -1.527,-0.022"
         style="fill:#f9c372;fill-opacity:1;fill-rule:nonzero;stroke:none;stroke-width:0.1"
         id="path351"
         inkscape:connector-curvature="0" /><path
         d="m 679.52,513.91 v 0 c 0.046,10e-4 0.091,10e-4 0.137,0.002 0,0 0,0 10e-4,0 -0.046,-0.001 -0.092,-0.001 -0.138,-0.002"
         style="fill:#501d1f;fill-opacity:1;fill-rule:nonzero;stroke:none;stroke-width:0.1"
         id="path353"
         inkscape:connector-curvature="0" /><path
         d="m 679.52,513.91 c 0.877,25.342 -0.684,51.368 -2.061,63.81 1.355,0 2.711,0 4.067,0 4.374,0.002 7.863,-4.818 8.043,-10.766 0.379,-13.9 1.385,-27.775 2.186,-41.658 0.014,-0.232 0.021,-0.462 0.021,-0.691 0.009,-5.637 -4.057,-10.478 -9.347,-10.643 v 0 c -0.415,-0.011 -0.829,-0.02 -1.244,-0.028 -0.509,-0.01 -1.019,-0.017 -1.528,-0.022 -0.046,-0.001 -0.091,-0.001 -0.137,-0.001"
         style="fill:#501d1f;fill-opacity:1;fill-rule:nonzero;stroke:none;stroke-width:0.1"
         id="path355"
         inkscape:connector-curvature="0" /><path
         d="m 670.429,526.078 c -0.002,0 -0.003,0 -0.005,0 -1.034,0.034 -1.415,9.638 -0.96,21.367 0.456,11.737 1.268,21.228 2.107,21.23 0.847,-0.003 1.461,-9.492 1.21,-21.256 -0.239,-11.744 -1.332,-21.341 -2.352,-21.341"
         style="fill:#937084;fill-opacity:1;fill-rule:nonzero;stroke:none;stroke-width:0.1"
         id="path357"
         inkscape:connector-curvature="0" /><path
         d="m 682.313,493.952 c -4.955,-11.678 -9.413,-23.557 -14.033,-35.371 -1.96,-5.048 -7.184,-7.92 -11.527,-6.117 -2.343,0.986 -4.655,2.038 -6.939,3.155 -4.192,2.081 -5.462,7.902 -2.947,12.698 5.865,11.248 11.886,22.415 17.43,33.827 2.387,4.877 6.916,7.644 10.301,6.106 1.843,-0.838 3.687,-1.677 5.53,-2.515 3.4,-1.545 4.292,-6.779 2.185,-11.783"
         style="fill:#512336;fill-opacity:1;fill-rule:nonzero;stroke:none;stroke-width:0.1"
         id="path359"
         inkscape:connector-curvature="0" /><path
         d="m 656.062,452.757 c -0.02,0.009 -0.04,0.017 -0.06,0.026 0.02,-0.009 0.04,-0.017 0.06,-0.026 m -0.093,0.04 c -0.027,0.011 -0.054,0.023 -0.081,0.035 v 0 c 0.027,-0.012 0.054,-0.024 0.081,-0.035"
         style="fill:#f9c372;fill-opacity:1;fill-rule:nonzero;stroke:none;stroke-width:0.1"
         id="path361"
         inkscape:connector-curvature="0" /><path
         d="m 655.888,452.832 c -0.473,0.203 -0.945,0.408 -1.414,0.616 v 0 c 0.47,-0.208 0.941,-0.413 1.414,-0.616 v 0"
         style="fill:#501d1f;fill-opacity:1;fill-rule:nonzero;stroke:none;stroke-width:0.1"
         id="path363"
         inkscape:connector-curvature="0" /><path
         d="m 659.485,451.923 c -0.924,0 -1.846,0.173 -2.732,0.541 v 0 c -0.231,0.097 -0.461,0.195 -0.691,0.293 -0.02,0.009 -0.04,0.017 -0.06,0.026 -0.011,0.005 -0.022,0.009 -0.033,0.014 -0.027,0.011 -0.054,0.023 -0.081,0.035 -0.473,0.203 -0.944,0.408 -1.414,0.616 10.25,20.738 18.866,42.905 22.494,53.724 1.053,-0.479 2.106,-0.958 3.16,-1.437 2.172,-0.986 3.32,-3.478 3.318,-6.453 -0.002,-1.684 -0.371,-3.522 -1.133,-5.33 -4.955,-11.678 -9.413,-23.557 -14.033,-35.371 -1.56,-4.018 -5.189,-6.658 -8.795,-6.658"
         style="fill:#501d1f;fill-opacity:1;fill-rule:nonzero;stroke:none;stroke-width:0.1"
         id="path365"
         inkscape:connector-curvature="0" /><path
         d="m 652.063,466.754 c -0.023,0 -0.045,0.005 -0.064,0.014 -0.79,0.394 2.54,8.505 7.323,18.085 4.696,9.406 8.843,16.896 9.615,16.896 0.015,0 0.028,-0.003 0.04,-0.009 0.657,-0.302 -2.45,-8.399 -7.086,-18.081 -4.516,-9.447 -8.889,-16.905 -9.828,-16.905"
         style="fill:#937084;fill-opacity:1;fill-rule:nonzero;stroke:none;stroke-width:0.1"
         id="path367"
         inkscape:connector-curvature="0" /><path
         d="m 653.362,437.566 c -5.392,-6.955 -10.484,-14.133 -15.675,-21.238 -2.207,-3.04 -6.234,-4.028 -8.845,-2.034 -1.405,1.084 -2.781,2.208 -4.122,3.369 -2.461,2.154 -2.295,6.293 0.243,9.064 5.93,6.502 11.951,12.92 17.693,19.589 2.466,2.848 6.005,3.891 8.017,2.247 1.095,-0.894 2.191,-1.79 3.286,-2.685 2.021,-1.65 1.702,-5.328 -0.597,-8.312"
         style="fill:#512336;fill-opacity:1;fill-rule:nonzero;stroke:none;stroke-width:0.1"
         id="path369"
         inkscape:connector-curvature="0" /><path
         d="m 632.002,413.256 c -1.135,0 -2.236,0.332 -3.16,1.038 -0.458,0.352 -0.912,0.71 -1.364,1.071 v 0 c 0.452,-0.361 0.906,-0.718 1.364,-1.071 0.924,-0.706 2.025,-1.038 3.16,-1.038 2.073,0 4.259,1.108 5.685,3.072 5.191,7.105 10.283,14.283 15.675,21.238 1.275,1.655 1.942,3.524 1.937,5.141 0.005,-1.617 -0.662,-3.486 -1.937,-5.141 -5.392,-6.955 -10.484,-14.133 -15.675,-21.238 -1.426,-1.964 -3.612,-3.072 -5.685,-3.072"
         style="fill:#f9c372;fill-opacity:1;fill-rule:nonzero;stroke:none;stroke-width:0.1"
         id="path371"
         inkscape:connector-curvature="0" /><path
         d="m 652.209,447.308 c -0.042,0.035 -0.085,0.07 -0.128,0.105 v 0 c 0.043,-0.035 0.086,-0.07 0.128,-0.105"
         style="fill:#501d1f;fill-opacity:1;fill-rule:nonzero;stroke:none;stroke-width:0.1"
         id="path373"
         inkscape:connector-curvature="0" /><path
         d="m 632.002,413.256 c -1.135,0 -2.236,0.332 -3.16,1.038 -0.458,0.353 -0.912,0.71 -1.363,1.072 10.553,12.087 20.255,25.43 24.602,32.047 0.043,-0.035 0.086,-0.07 0.128,-0.105 0.583,-0.476 1.167,-0.953 1.75,-1.43 0.9,-0.735 1.336,-1.872 1.34,-3.171 0.005,-1.617 -0.662,-3.486 -1.937,-5.141 -5.392,-6.955 -10.484,-14.133 -15.675,-21.238 -1.426,-1.964 -3.612,-3.072 -5.685,-3.072"
         style="fill:#501d1f;fill-opacity:1;fill-rule:nonzero;stroke:none;stroke-width:0.1"
         id="path375"
         inkscape:connector-curvature="0" /><path
         d="m 628.232,424.735 c -0.034,0 -0.062,0.008 -0.082,0.026 -0.464,0.408 3.207,5.258 8.115,10.834 4.742,5.388 8.8,9.623 9.422,9.623 0.022,0 0.04,-0.005 0.053,-0.016 0.39,-0.321 -3.127,-5.203 -7.954,-10.873 -4.613,-5.427 -8.798,-9.594 -9.554,-9.594"
         style="fill:#937084;fill-opacity:1;fill-rule:nonzero;stroke:none;stroke-width:0.1"
         id="path377"
         inkscape:connector-curvature="0" /><path
         d="m 727.969,414.598 h -0.008 c -0.638,0.004 -1.15,0.525 -1.146,1.161 l 0.117,16.882 c 10e-4,0.102 0.014,0.205 0.043,0.303 l 7.511,26.792 c 0.172,0.616 0.816,0.971 1.421,0.8 0.614,-0.172 0.972,-0.808 0.8,-1.421 l -7.47,-26.644 -0.115,-16.728 c -0.005,-0.634 -0.521,-1.145 -1.153,-1.145"
         style="fill:#512336;fill-opacity:1;fill-rule:nonzero;stroke:none;stroke-width:0.1"
         id="path379"
         inkscape:connector-curvature="0" /><path
         d="m 707.07,595.53 c 0.96,-1.764 0.308,-3.972 -1.457,-4.931 -1.764,-0.96 -3.972,-0.308 -4.932,1.457 -0.959,1.764 -0.307,3.972 1.458,4.932 1.764,0.959 3.972,0.307 4.931,-1.458"
         style="fill:#512336;fill-opacity:1;fill-rule:nonzero;stroke:none;stroke-width:0.1"
         id="path381"
         inkscape:connector-curvature="0" /><path
         d="m 736.5,541.813 c 0.96,-1.764 0.307,-3.973 -1.457,-4.932 -1.765,-0.96 -3.973,-0.307 -4.933,1.457 -0.96,1.765 -0.306,3.973 1.457,4.932 1.765,0.961 3.974,0.307 4.933,-1.457"
         style="fill:#512336;fill-opacity:1;fill-rule:nonzero;stroke:none;stroke-width:0.1"
         id="path383"
         inkscape:connector-curvature="0" /><path
         d="m 742.005,486.415 c 0.96,-1.765 0.308,-3.973 -1.457,-4.933 -1.765,-0.958 -3.973,-0.306 -4.933,1.458 -0.959,1.765 -0.306,3.973 1.458,4.933 1.765,0.959 3.973,0.307 4.932,-1.458"
         style="fill:#512336;fill-opacity:1;fill-rule:nonzero;stroke:none;stroke-width:0.1"
         id="path385"
         inkscape:connector-curvature="0" /><path
         d="m 718.474,587.448 c 5.949,-10.263 12.358,-20.252 18.616,-30.33 2.683,-4.296 1.685,-9.923 -2.371,-12.295 -2.198,-1.271 -4.429,-2.484 -6.692,-3.637 -4.177,-2.103 -9.439,0.115 -11.589,4.703 -5.057,10.73 -9.958,21.538 -15.339,32.111 -2.29,4.531 -1.638,9.562 1.626,11.338 1.777,0.967 3.555,1.934 5.333,2.9 3.278,1.784 7.857,-0.406 10.416,-4.79"
         style="fill:#512336;fill-opacity:1;fill-rule:nonzero;stroke:none;stroke-width:0.1"
         id="path387"
         inkscape:connector-curvature="0" /><path
         d="m 732.957,543.821 c 0.475,0.265 0.948,0.534 1.42,0.805 -0.472,-0.271 -0.945,-0.54 -1.42,-0.805 m 1.471,0.835 c 0.015,0.008 0.03,0.017 0.046,0.026 -0.016,-0.009 -0.031,-0.018 -0.046,-0.026 m 0.142,0.082 c 0.007,0.004 0.014,0.008 0.021,0.012 -0.007,-0.004 -0.014,-0.008 -0.021,-0.012"
         style="fill:#f9c372;fill-opacity:1;fill-rule:nonzero;stroke:none;stroke-width:0.1"
         id="path389"
         inkscape:connector-curvature="0" /><path
         d="m 705.01,590.581 v 0 c 0.166,0.091 0.333,0.181 0.5,0.272 -0.167,-0.091 -0.333,-0.182 -0.5,-0.272"
         style="fill:#501d1f;fill-opacity:1;fill-rule:nonzero;stroke:none;stroke-width:0.1"
         id="path391"
         inkscape:connector-curvature="0" /><path
         d="m 732.56,543.6 c -9.67,19.348 -21.447,38.218 -27.55,46.981 0.167,0.09 0.333,0.181 0.5,0.272 0.85,0.461 1.699,0.923 2.548,1.385 0.777,0.423 1.628,0.623 2.506,0.623 2.829,0 5.957,-2.068 7.91,-5.413 5.949,-10.263 12.358,-20.252 18.616,-30.33 1.011,-1.619 1.5,-3.428 1.499,-5.18 -0.003,-2.895 -1.343,-5.637 -3.87,-7.115 v 0 c -0.043,-0.024 -0.085,-0.049 -0.128,-0.073 -0.007,-0.004 -0.014,-0.008 -0.021,-0.012 -0.032,-0.019 -0.064,-0.037 -0.096,-0.056 -0.016,-0.009 -0.031,-0.018 -0.046,-0.026 -0.017,-0.01 -0.034,-0.02 -0.051,-0.03 -0.472,-0.271 -0.945,-0.54 -1.42,-0.805 -0.132,-0.074 -0.264,-0.148 -0.397,-0.221"
         style="fill:#501d1f;fill-opacity:1;fill-rule:nonzero;stroke:none;stroke-width:0.1"
         id="path393"
         inkscape:connector-curvature="0" /><path
         d="m 720.713,548.995 c -0.944,0 -5.036,6.903 -9.356,15.639 -4.442,8.98 -7.701,16.426 -7.073,16.768 0.015,0.009 0.033,0.013 0.052,0.013 0.792,0 5.022,-6.745 9.518,-15.449 4.615,-8.915 7.709,-16.564 6.93,-16.955 -0.021,-0.011 -0.045,-0.016 -0.071,-0.016"
         style="fill:#937084;fill-opacity:1;fill-rule:nonzero;stroke:none;stroke-width:0.1"
         id="path395"
         inkscape:connector-curvature="0" /><path
         d="m 742.788,529.78 c 1.046,-10.772 2.546,-21.491 3.897,-32.227 0.589,-4.583 -2.156,-8.864 -6.145,-9.282 -2.157,-0.216 -4.319,-0.371 -6.485,-0.463 -3.991,-0.15 -7.315,3.694 -7.385,8.315 -0.189,10.82 -0.228,21.643 -0.723,32.454 -0.199,4.628 2.068,8.547 5.231,8.774 1.723,0.123 3.447,0.246 5.17,0.37 3.177,0.227 5.979,-3.332 6.44,-7.941"
         style="fill:#512336;fill-opacity:1;fill-rule:nonzero;stroke:none;stroke-width:0.1"
         id="path397"
         inkscape:connector-curvature="0" /><path
         d="m 739.742,488.193 c -10e-4,0 0,0 -10e-4,0 0.064,0.006 0.127,0.012 0.19,0.018 -0.063,-0.006 -0.126,-0.012 -0.189,-0.018"
         style="fill:#f9c372;fill-opacity:1;fill-rule:nonzero;stroke:none;stroke-width:0.1"
         id="path399"
         inkscape:connector-curvature="0" /><path
         d="m 738.431,488.079 v 0 c 0.437,0.036 0.874,0.074 1.31,0.114 10e-4,0 0,0 10e-4,0 -0.437,-0.04 -0.875,-0.079 -1.311,-0.114"
         style="fill:#501d1f;fill-opacity:1;fill-rule:nonzero;stroke:none;stroke-width:0.1"
         id="path401"
         inkscape:connector-curvature="0" /><path
         d="m 739.951,488.213 c 0.023,0.002 0.045,0.004 0.068,0.007 -0.023,-0.003 -0.045,-0.005 -0.068,-0.007"
         style="fill:#f9c372;fill-opacity:1;fill-rule:nonzero;stroke:none;stroke-width:0.1"
         id="path403"
         inkscape:connector-curvature="0" /><path
         d="m 733.394,537.509 v 0 c 0.055,0.004 0.11,0.008 0.165,0.012 -0.055,-0.004 -0.11,-0.008 -0.165,-0.012"
         style="fill:#501d1f;fill-opacity:1;fill-rule:nonzero;stroke:none;stroke-width:0.1"
         id="path405"
         inkscape:connector-curvature="0" /><path
         d="m 738.431,488.079 c -0.77,19.719 -3.347,39.843 -5.037,49.43 0.055,0.004 0.11,0.008 0.165,0.012 0.93,0.066 1.859,0.132 2.789,0.2 0.096,0.007 0.193,0.01 0.288,0.01 3.058,0 5.705,-3.482 6.152,-7.951 1.046,-10.772 2.546,-21.491 3.897,-32.227 0.055,-0.421 0.081,-0.839 0.08,-1.252 -0.005,-4.085 -2.602,-7.651 -6.225,-8.03 v 0 c -0.174,-0.018 -0.347,-0.035 -0.521,-0.051 -0.023,-0.003 -0.045,-0.005 -0.068,-0.007 -0.007,-0.001 -0.013,-0.001 -0.02,-0.002 -0.063,-0.006 -0.126,-0.012 -0.19,-0.018 -0.436,-0.04 -0.873,-0.078 -1.31,-0.114"
         style="fill:#501d1f;fill-opacity:1;fill-rule:nonzero;stroke:none;stroke-width:0.1"
         id="path407"
         inkscape:connector-curvature="0" /><path
         d="m 731.143,497.053 c -0.751,0 -1.559,7.425 -1.877,16.539 -0.321,9.134 -0.256,16.545 0.353,16.59 0.002,0 0.004,0 0.005,0 0.616,0 1.583,-7.32 2.053,-16.439 0.478,-9.145 0.215,-16.663 -0.53,-16.69 -0.001,0 -0.002,0 -0.004,0"
         style="fill:#937084;fill-opacity:1;fill-rule:nonzero;stroke:none;stroke-width:0.1"
         id="path409"
         inkscape:connector-curvature="0" /><path
         d="m 744.07,475.724 c -1.207,-7.41 -2.097,-14.865 -3.092,-22.306 -0.416,-3.178 -3.03,-5.56 -5.799,-5.13 -1.495,0.24 -2.984,0.523 -4.463,0.846 -2.722,0.611 -4.284,3.781 -3.511,6.892 1.794,7.289 3.691,14.553 5.277,21.892 0.686,3.139 2.913,5.363 5.091,4.951 1.186,-0.224 2.371,-0.449 3.558,-0.674 2.186,-0.413 3.446,-3.299 2.939,-6.471"
         style="fill:#512336;fill-opacity:1;fill-rule:nonzero;stroke:none;stroke-width:0.1"
         id="path411"
         inkscape:connector-curvature="0" /><path
         d="m 735.828,448.238 c -0.215,0 -0.431,0.016 -0.649,0.05 -0.439,0.07 -0.876,0.145 -1.313,0.222 0.437,-0.077 0.875,-0.151 1.313,-0.222 0.218,-0.034 0.434,-0.05 0.649,-0.05 2.518,0 4.767,2.252 5.15,5.18 0.995,7.441 1.885,14.896 3.092,22.306 0.076,0.47 0.112,0.935 0.112,1.386 0,-0.451 -0.036,-0.916 -0.112,-1.386 -1.207,-7.41 -2.097,-14.865 -3.092,-22.306 -0.383,-2.928 -2.632,-5.18 -5.15,-5.18 m -1.993,0.278 c -0.015,0.002 -0.03,0.005 -0.045,0.008 0.015,-0.003 0.03,-0.006 0.045,-0.008 m -0.073,0.013 c -0.007,10e-4 -0.015,0.002 -0.022,0.004 v 0 c 0.007,-0.002 0.015,-0.003 0.022,-0.004"
         style="fill:#f9c372;fill-opacity:1;fill-rule:nonzero;stroke:none;stroke-width:0.1"
         id="path413"
         inkscape:connector-curvature="0" /><path
         d="m 733.74,448.533 c -0.007,10e-4 -0.013,0.002 -0.02,0.003 v 0 c 0.007,-10e-4 0.013,-0.002 0.02,-0.003 v 0"
         style="fill:#501d1f;fill-opacity:1;fill-rule:nonzero;stroke:none;stroke-width:0.1"
         id="path415"
         inkscape:connector-curvature="0" /><path
         d="m 741.131,482.195 c -0.534,0.101 -1.067,0.202 -1.601,0.303 0.534,-0.1 1.067,-0.201 1.601,-0.303"
         style="fill:#501d1f;fill-opacity:1;fill-rule:nonzero;stroke:none;stroke-width:0.1"
         id="path417"
         inkscape:connector-curvature="0" /><path
         d="m 735.828,448.238 c -0.215,0 -0.431,0.016 -0.649,0.05 -0.438,0.071 -0.876,0.145 -1.313,0.222 -0.01,0.002 -0.021,0.004 -0.031,0.006 -0.015,0.002 -0.03,0.005 -0.045,0.008 -0.01,10e-4 -0.019,0.003 -0.028,0.005 -0.007,10e-4 -0.015,0.002 -0.022,0.004 -0.007,10e-4 -0.013,0.002 -0.02,0.003 2.983,13.36 4.816,27.314 5.378,34.044 0.144,-0.027 0.288,-0.054 0.432,-0.082 0.534,-0.101 1.067,-0.202 1.601,-0.303 v 0 c 1.862,-0.352 3.052,-2.497 3.051,-5.085 0,-0.451 -0.036,-0.916 -0.112,-1.386 -1.207,-7.41 -2.097,-14.865 -3.092,-22.306 -0.383,-2.928 -2.632,-5.18 -5.15,-5.18"
         style="fill:#501d1f;fill-opacity:1;fill-rule:nonzero;stroke:none;stroke-width:0.1"
         id="path419"
         inkscape:connector-curvature="0" /><path
         d="m 730.412,455.85 c -0.006,0 -0.012,0 -0.018,0.002 -0.513,0.116 0.261,5.247 1.666,11.425 1.396,6.135 2.746,11.064 3.176,11.064 0.003,0 0.007,0 0.01,-0.001 0.423,-0.082 -0.224,-5.174 -1.53,-11.391 -1.286,-6.147 -2.78,-11.099 -3.304,-11.099"
         style="fill:#937084;fill-opacity:1;fill-rule:nonzero;stroke:none;stroke-width:0.1"
         id="path421"
         inkscape:connector-curvature="0" /><path
         d="m 514.73,413.496 c -0.304,0 -0.606,0.12 -0.833,0.357 -0.441,0.459 -0.425,1.189 0.035,1.63 l 14.289,13.692 c 0.074,0.07 0.157,0.132 0.248,0.181 l 28.661,15.568 c 0.559,0.304 1.26,0.096 1.564,-0.463 0.305,-0.561 0.097,-1.261 -0.463,-1.565 l -28.525,-15.493 -14.178,-13.586 c -0.224,-0.214 -0.511,-0.321 -0.798,-0.321"
         style="fill:#512336;fill-opacity:1;fill-rule:nonzero;stroke:none;stroke-width:0.1"
         id="path423"
         inkscape:connector-curvature="0" /><path
         d="m 648.818,579.063 c -0.7,-2.247 -3.09,-3.502 -5.338,-2.803 -2.248,0.7 -3.503,3.09 -2.802,5.338 0.699,2.248 3.089,3.503 5.337,2.802 2.248,-0.699 3.503,-3.089 2.803,-5.337"
         style="fill:#512336;fill-opacity:1;fill-rule:nonzero;stroke:none;stroke-width:0.1"
         id="path425"
         inkscape:connector-curvature="0" /><path
         d="m 627.69,510.443 c -0.7,-2.248 -3.09,-3.502 -5.338,-2.803 -2.247,0.7 -3.502,3.089 -2.802,5.338 0.699,2.248 3.089,3.502 5.337,2.802 2.248,-0.699 3.503,-3.089 2.803,-5.337"
         style="fill:#512336;fill-opacity:1;fill-rule:nonzero;stroke:none;stroke-width:0.1"
         id="path427"
         inkscape:connector-curvature="0" /><path
         d="m 585.608,460.566 c -0.699,-2.248 -3.089,-3.502 -5.337,-2.803 -2.248,0.7 -3.503,3.09 -2.803,5.338 0.699,2.248 3.089,3.502 5.337,2.802 2.248,-0.699 3.503,-3.088 2.803,-5.337"
         style="fill:#512336;fill-opacity:1;fill-rule:nonzero;stroke:none;stroke-width:0.1"
         id="path429"
         inkscape:connector-curvature="0" /><path
         d="m 651.336,562.874 c -3.77,-13.386 -6.934,-26.932 -10.296,-40.426 -1.42,-5.764 -6.966,-9.521 -12.273,-8.049 -2.865,0.81 -5.707,1.695 -8.525,2.656 -5.18,1.795 -7.613,8.03 -5.511,13.585 4.891,13.017 9.975,25.965 14.469,39.126 1.941,5.626 6.703,9.187 10.862,7.893 2.264,-0.705 4.53,-1.41 6.794,-2.115 4.178,-1.299 6.077,-6.937 4.48,-12.67"
         style="fill:#512336;fill-opacity:1;fill-rule:nonzero;stroke:none;stroke-width:0.1"
         id="path431"
         inkscape:connector-curvature="0" /><path
         d="m 628.62,514.441 c -0.033,0.009 -0.065,0.018 -0.097,0.028 0.032,-0.01 0.064,-0.019 0.097,-0.028 m -0.136,0.039 c -0.794,0.225 -1.587,0.457 -2.378,0.694 0,10e-4 -10e-4,10e-4 -10e-4,10e-4 0.791,-0.237 1.584,-0.469 2.379,-0.695"
         style="fill:#f9c372;fill-opacity:1;fill-rule:nonzero;stroke:none;stroke-width:0.1"
         id="path433"
         inkscape:connector-curvature="0" /><path
         d="m 626.106,515.174 c -0.044,0.013 -0.088,0.027 -0.131,0.04 v 0 c 0.043,-0.013 0.086,-0.026 0.13,-0.039 0,0 10e-4,0 10e-4,-10e-4"
         style="fill:#501d1f;fill-opacity:1;fill-rule:nonzero;stroke:none;stroke-width:0.1"
         id="path435"
         inkscape:connector-curvature="0" /><path
         d="m 643.723,576.519 c -0.25,0.078 -0.5,0.156 -0.749,0.234 v 0 c 0.25,-0.078 0.499,-0.156 0.749,-0.234"
         style="fill:#501d1f;fill-opacity:1;fill-rule:nonzero;stroke:none;stroke-width:0.1"
         id="path437"
         inkscape:connector-curvature="0" /><path
         d="m 631.117,514.079 c -0.78,0 -1.568,0.103 -2.35,0.32 v 0 c -0.049,0.014 -0.098,0.028 -0.147,0.042 -0.033,0.009 -0.065,0.018 -0.097,0.028 -0.013,0.003 -0.026,0.007 -0.039,0.011 -0.795,0.226 -1.588,0.458 -2.379,0.695 -0.044,0.013 -0.087,0.026 -0.13,0.039 8.369,23.935 14.615,49.25 16.999,61.539 0.249,-0.078 0.499,-0.156 0.749,-0.234 1.044,-0.325 2.089,-0.65 3.133,-0.975 3.183,-0.989 5.042,-4.497 5.042,-8.646 0,-1.297 -0.182,-2.658 -0.562,-4.024 -3.77,-13.386 -6.934,-26.932 -10.296,-40.426 -1.211,-4.914 -5.42,-8.369 -9.923,-8.369"
         style="fill:#501d1f;fill-opacity:1;fill-rule:nonzero;stroke:none;stroke-width:0.1"
         id="path439"
         inkscape:connector-curvature="0" /><path
         d="m 620.962,529.527 c -0.019,0 -0.038,0.003 -0.056,0.009 -0.977,0.341 1.514,9.623 5.435,20.687 3.87,10.917 7.422,19.648 8.288,19.648 0.012,0 0.024,-10e-4 0.035,-0.005 0.807,-0.255 -1.428,-9.497 -5.164,-20.654 -3.657,-10.957 -7.485,-19.685 -8.538,-19.685"
         style="fill:#937084;fill-opacity:1;fill-rule:nonzero;stroke:none;stroke-width:0.1"
         id="path441"
         inkscape:connector-curvature="0" /><path
         d="m 622.708,495.328 c -8.202,-9.678 -15.989,-19.695 -23.913,-29.601 -3.371,-4.238 -9.213,-5.426 -12.824,-2.413 -1.943,1.637 -3.839,3.329 -5.686,5.075 -3.385,3.232 -2.868,9.167 0.96,13 8.943,8.996 18.011,17.868 26.696,27.116 3.729,3.947 8.876,5.243 11.651,2.768 1.51,-1.348 3.022,-2.697 4.533,-4.044 2.787,-2.486 2.082,-7.75 -1.417,-11.901"
         style="fill:#512336;fill-opacity:1;fill-rule:nonzero;stroke:none;stroke-width:0.1"
         id="path443"
         inkscape:connector-curvature="0" /><path
         d="m 590.77,461.636 c -1.749,0 -3.433,0.538 -4.799,1.678 -0.239,0.201 -0.478,0.404 -0.716,0.607 v 0.001 c 0.238,-0.204 0.477,-0.407 0.716,-0.608 1.366,-1.14 3.05,-1.678 4.799,-1.678 2.877,0 5.929,1.456 8.025,4.091 7.924,9.906 15.711,19.923 23.913,29.601 2.043,2.424 3.134,5.228 3.133,7.636 10e-4,-2.408 -1.09,-5.212 -3.133,-7.636 -8.202,-9.678 -15.989,-19.695 -23.913,-29.601 -2.096,-2.635 -5.148,-4.091 -8.025,-4.091"
         style="fill:#f9c372;fill-opacity:1;fill-rule:nonzero;stroke:none;stroke-width:0.1"
         id="path445"
         inkscape:connector-curvature="0" /><path
         d="m 585.255,463.921 c -0.391,0.335 -0.781,0.671 -1.168,1.01 v 0 c 0.388,-0.339 0.777,-0.675 1.168,-1.009 v -0.001"
         style="fill:#501d1f;fill-opacity:1;fill-rule:nonzero;stroke:none;stroke-width:0.1"
         id="path447"
         inkscape:connector-curvature="0" /><path
         d="m 621.932,509.185 c -0.133,0.119 -0.265,0.237 -0.398,0.355 v 0 c 0.133,-0.118 0.265,-0.236 0.398,-0.355"
         style="fill:#501d1f;fill-opacity:1;fill-rule:nonzero;stroke:none;stroke-width:0.1"
         id="path449"
         inkscape:connector-curvature="0" /><path
         d="m 590.77,461.636 c -1.749,0 -3.433,0.538 -4.799,1.678 -0.239,0.201 -0.478,0.404 -0.716,0.608 -0.391,0.334 -0.78,0.67 -1.168,1.009 15.952,16.752 30.767,35.356 37.447,44.609 0.133,-0.118 0.265,-0.236 0.398,-0.355 0.73,-0.652 1.461,-1.304 2.193,-1.956 1.159,-1.034 1.715,-2.549 1.716,-4.265 10e-4,-2.408 -1.09,-5.212 -3.133,-7.636 -8.202,-9.678 -15.989,-19.695 -23.913,-29.601 -2.096,-2.635 -5.148,-4.091 -8.025,-4.091"
         style="fill:#501d1f;fill-opacity:1;fill-rule:nonzero;stroke:none;stroke-width:0.1"
         id="path451"
         inkscape:connector-curvature="0" /><path
         d="m 585.812,478.341 c -0.056,0 -0.098,0.014 -0.128,0.043 -0.638,0.611 4.954,7.365 12.369,15.091 7.143,7.442 13.232,13.28 14.153,13.28 0.036,0 0.064,-0.009 0.084,-0.026 0.537,-0.484 -4.836,-7.292 -12.141,-15.158 -6.956,-7.501 -13.217,-13.23 -14.337,-13.23"
         style="fill:#937084;fill-opacity:1;fill-rule:nonzero;stroke:none;stroke-width:0.1"
         id="path453"
         inkscape:connector-curvature="0" /><path
         d="m 578.305,450.097 c -7.216,-5.037 -14.211,-10.378 -21.279,-15.619 -3.012,-2.246 -7.15,-1.994 -9.051,0.686 -1.019,1.454 -1.998,2.935 -2.934,4.443 -1.709,2.789 -0.32,6.691 2.927,8.581 7.595,4.446 15.251,8.785 22.717,13.446 3.2,1.985 6.89,1.929 8.321,-0.237 0.78,-1.181 1.56,-2.362 2.34,-3.542 1.439,-2.176 0.041,-5.593 -3.041,-7.758"
         style="fill:#512336;fill-opacity:1;fill-rule:nonzero;stroke:none;stroke-width:0.1"
         id="path455"
         inkscape:connector-curvature="0" /><path
         d="m 580.614,458.963 c -0.202,0.305 -0.403,0.611 -0.605,0.916 v 0 c 0.202,-0.305 0.404,-0.611 0.605,-0.916"
         style="fill:#501d1f;fill-opacity:1;fill-rule:nonzero;stroke:none;stroke-width:0.1"
         id="path457"
         inkscape:connector-curvature="0" /><path
         d="m 552.559,432.957 c -1.831,0 -3.543,0.739 -4.584,2.207 v 0 c -0.332,0.474 -0.66,0.95 -0.983,1.43 13.669,8.403 26.9,18.26 33.017,23.285 0.202,-0.305 0.403,-0.611 0.605,-0.916 0.244,-0.369 0.488,-0.739 0.732,-1.108 0.385,-0.582 0.567,-1.253 0.568,-1.965 0.002,-1.95 -1.352,-4.208 -3.609,-5.793 -7.216,-5.037 -14.211,-10.378 -21.279,-15.619 -1.362,-1.016 -2.956,-1.521 -4.467,-1.521"
         style="fill:#501d1f;fill-opacity:1;fill-rule:nonzero;stroke:none;stroke-width:0.1"
         id="path459"
         inkscape:connector-curvature="0" /><path
         d="m 550.6,445.302 c -0.089,0 -0.148,0.021 -0.173,0.062 -0.322,0.528 4.624,4.067 10.968,7.932 5.94,3.619 10.945,6.397 11.789,6.397 0.058,0 0.096,-0.013 0.114,-0.04 0.276,-0.422 -4.533,-4.038 -10.827,-8.017 -5.786,-3.665 -10.848,-6.334 -11.871,-6.334"
         style="fill:#937084;fill-opacity:1;fill-rule:nonzero;stroke:none;stroke-width:0.1"
         id="path461"
         inkscape:connector-curvature="0" /><path
         d="m 677.311,644.774 c 0,-4.213 -3.414,-7.628 -7.628,-7.628 -4.213,0 -7.628,3.415 -7.628,7.628 0,4.213 3.415,7.629 7.628,7.629 4.214,0 7.628,-3.416 7.628,-7.629"
         style="fill:#361b25;fill-opacity:1;fill-rule:nonzero;stroke:none;stroke-width:0.1"
         id="path463"
         inkscape:connector-curvature="0" /><path
         d="m 631.64,616.44 c 0,-4.21 -3.41,-7.63 -7.62,-7.63 -3.72,0 -6.81,2.66 -7.49,6.18 -0.09,0.47 -0.14,0.95 -0.14,1.45 0,4.21 3.41,7.63 7.63,7.63 3.32,0 6.15,-2.13 7.18,-5.1 0.29,-0.79 0.44,-1.64 0.44,-2.53"
         style="fill:#512336;fill-opacity:1;fill-rule:nonzero;stroke:none;stroke-width:0.1"
         id="path465"
         inkscape:connector-curvature="0" /><path
         d="m 631.64,616.44 c 0,-4.21 -3.41,-7.63 -7.62,-7.63 -3.72,0 -6.81,2.66 -7.49,6.18 3.1,-2.69 7.25,-5.04 10.64,-2.66 2.26,1.59 3.44,4.1 4.03,6.64 0.29,-0.79 0.44,-1.64 0.44,-2.53"
         style="fill:#361b25;fill-opacity:1;fill-rule:nonzero;stroke:none;stroke-width:0.1"
         id="path467"
         inkscape:connector-curvature="0" /><path
         d="m 617.554,617.061 c -0.046,0 -0.061,0.063 -0.05,0.203 0,0 0.599,4.085 7.62,4.872 0.115,0.013 0.201,0.019 0.261,0.019 0.677,0 -1.858,-0.78 -3.811,-1.79 -2.575,-1.332 -3.764,-3.304 -4.02,-3.304"
         style="fill:#937084;fill-opacity:1;fill-rule:nonzero;stroke:none;stroke-width:0.1"
         id="path469"
         inkscape:connector-curvature="0" /><path
         d="m 725.64,665.44 c 0,-4.21 -3.41,-7.63 -7.62,-7.63 -3.72,0 -6.81,2.66 -7.49,6.18 -0.09,0.47 -0.14,0.95 -0.14,1.45 0,4.21 3.41,7.63 7.63,7.63 3.32,0 6.15,-2.13 7.18,-5.1 0.29,-0.79 0.44,-1.64 0.44,-2.53"
         style="fill:#512336;fill-opacity:1;fill-rule:nonzero;stroke:none;stroke-width:0.1"
         id="path471"
         inkscape:connector-curvature="0" /><path
         d="m 725.64,665.44 c 0,-4.21 -3.41,-7.63 -7.62,-7.63 -3.72,0 -6.81,2.66 -7.49,6.18 3.1,-2.69 7.25,-5.04 10.64,-2.66 2.26,1.59 3.44,4.1 4.03,6.64 0.29,-0.79 0.44,-1.64 0.44,-2.53"
         style="fill:#361b25;fill-opacity:1;fill-rule:nonzero;stroke:none;stroke-width:0.1"
         id="path473"
         inkscape:connector-curvature="0" /><path
         d="m 711.554,666.061 c -0.046,0 -0.061,0.063 -0.05,0.203 0,0 0.599,4.085 7.62,4.872 0.114,0.013 0.201,0.019 0.261,0.019 0.677,0 -1.858,-0.78 -3.811,-1.79 -2.575,-1.332 -3.764,-3.304 -4.02,-3.304"
         style="fill:#937084;fill-opacity:1;fill-rule:nonzero;stroke:none;stroke-width:0.1"
         id="path475"
         inkscape:connector-curvature="0" /><path
         d="m 678.651,639.664 c 0.357,0.8 0.581,1.672 0.643,2.589 0.85,-1.155 0.949,-1.954 0.208,-2.353 -0.183,-0.098 -0.466,-0.177 -0.851,-0.236"
         style="fill:#f6d184;fill-opacity:1;fill-rule:nonzero;stroke:none;stroke-width:0.1"
         id="path477"
         inkscape:connector-curvature="0" /><path
         d="m 676.157,639.528 c -0.292,0 -0.599,0.003 -0.926,0.01 1.21,1.282 1.981,2.982 2.071,4.861 0.868,-0.81 1.538,-1.53 1.992,-2.146 -0.062,-0.917 -0.286,-1.789 -0.643,-2.589 -0.597,-0.091 -1.43,-0.136 -2.494,-0.136"
         style="fill:#f3b67b;fill-opacity:1;fill-rule:nonzero;stroke:none;stroke-width:0.1"
         id="path479"
         inkscape:connector-curvature="0" /><path
         d="m 630.302,644.693 c -115.885,16.847 -394.094,70.495 -377.419,94.421 20.745,29.764 149.722,35.176 173.173,36.078 0.082,0.003 0.166,0.004 0.253,0.004 18.685,0 159.314,-72.364 222.779,-111.36 -7.793,-4.745 -14.451,-11.129 -18.786,-19.143"
         style="fill:#fbfce9;fill-opacity:1;fill-rule:nonzero;stroke:none;stroke-width:0.1"
         id="path481"
         inkscape:connector-curvature="0" /><path
         d="m 663.423,640.413 c -4.716,0.485 -10.345,1.158 -16.782,2.007 4.238,3.72 10.1,8.235 17.608,11.744 1.09,-0.731 2.125,-1.435 3.114,-2.12 -3.078,-0.982 -5.308,-3.865 -5.308,-7.27 0,-1.622 0.505,-3.125 1.368,-4.361 m -22.232,2.739 c -3.443,0.472 -7.079,0.987 -10.889,1.541 4.335,8.014 10.993,14.398 18.786,19.143 3.013,-1.852 5.847,-3.624 8.491,-5.314 -8.765,-4.649 -13.723,-10.826 -16.388,-15.37"
         style="fill:#f6d184;fill-opacity:1;fill-rule:nonzero;stroke:none;stroke-width:0.1"
         id="path483"
         inkscape:connector-curvature="0" /><path
         d="m 646.641,642.42 c -1.753,0.231 -3.581,0.476 -5.45,0.732 2.665,4.544 7.623,10.721 16.388,15.37 2.385,-1.524 4.618,-2.983 6.67,-4.358 -7.508,-3.509 -13.37,-8.024 -17.608,-11.744"
         style="fill:#f7e1a9;fill-opacity:1;fill-rule:nonzero;stroke:none;stroke-width:0.1"
         id="path485"
         inkscape:connector-curvature="0" /><path
         d="m 675.231,639.538 c -2.769,0.058 -6.764,0.357 -11.808,0.875 -0.863,1.236 -1.368,2.739 -1.368,4.361 0,3.405 2.23,6.288 5.308,7.27 4.405,-3.05 7.788,-5.635 9.939,-7.645 -0.09,-1.879 -0.861,-3.579 -2.071,-4.861"
         style="fill:#afa294;fill-opacity:1;fill-rule:nonzero;stroke:none;stroke-width:0.1"
         id="path487"
         inkscape:connector-curvature="0" /><path
         d="m 679.502,638.899 c -0.126,0 -0.254,0.024 -0.378,0.075 L 360.057,769.293 c -0.511,0.208 -0.757,0.792 -0.548,1.303 0.209,0.512 0.794,0.759 1.304,0.548 L 679.88,640.826 c 0.512,-0.209 0.757,-0.793 0.548,-1.304 -0.158,-0.388 -0.532,-0.623 -0.926,-0.623"
         style="fill:#512336;fill-opacity:1;fill-rule:nonzero;stroke:none;stroke-width:0.1"
         id="path489"
         inkscape:connector-curvature="0" /><path
         d="m 320.529,705.644 c -0.411,0 -0.796,0.255 -0.942,0.664 -0.186,0.521 0.086,1.092 0.606,1.278 l 103.724,36.979 c 0.521,0.186 1.092,-0.085 1.277,-0.605 0.186,-0.521 -0.086,-1.093 -0.606,-1.278 l -103.723,-36.98 c -0.112,-0.039 -0.225,-0.058 -0.336,-0.058"
         style="fill:#512336;fill-opacity:1;fill-rule:nonzero;stroke:none;stroke-width:0.1"
         id="path491"
         inkscape:connector-curvature="0" /><path
         d="m 447.703,676.782 c -0.275,0 -0.549,0.113 -0.746,0.333 -0.368,0.412 -0.332,1.044 0.079,1.412 l 42.392,37.882 c 0.412,0.369 1.045,0.332 1.412,-0.079 0.368,-0.412 0.332,-1.044 -0.079,-1.412 l -42.392,-37.882 c -0.191,-0.17 -0.429,-0.254 -0.666,-0.254"
         style="fill:#512336;fill-opacity:1;fill-rule:nonzero;stroke:none;stroke-width:0.1"
         id="path493"
         inkscape:connector-curvature="0" /><path
         d="m 536.598,659.695 c -0.228,0 -0.458,0.078 -0.646,0.238 -0.421,0.357 -0.473,0.988 -0.116,1.409 l 22.6,26.656 c 0.357,0.421 0.987,0.475 1.409,0.116 0.422,-0.357 0.474,-0.988 0.116,-1.409 l -22.6,-26.656 c -0.197,-0.234 -0.479,-0.354 -0.763,-0.354"
         style="fill:#512336;fill-opacity:1;fill-rule:nonzero;stroke:none;stroke-width:0.1"
         id="path495"
         inkscape:connector-curvature="0" /></g></g></svg>