<svg xmlns="http://www.w3.org/2000/svg" width="186.751" height="37.525" viewBox="0 0 186.751 37.525"><defs><style>.a{fill:#431e2e;}.b{fill:#fff;}</style></defs><g transform="translate(0 -0.001)"><g transform="translate(0 0)"><path class="a" d="M49.763,47.112a3.781,3.781,0,1,0-2.677,4.632,3.779,3.779,0,0,0,2.677-4.632m-1.73,1.552h0a.582.582,0,0,1-.58-.589A1.284,1.284,0,0,0,46.1,46.722a.585.585,0,0,1,0-1.17h.008a2.446,2.446,0,0,1,2.5,2.531.589.589,0,0,1-.584.581" transform="translate(-25.419 -26.597)"/><path class="a" d="M35.521,15.456a16.031,16.031,0,0,0-3.506-5.279c-5.119-5.119-12.37-5.248-19.1-4.254a9.958,9.958,0,0,1-6.4-1.212A10,10,0,0,1,4.465,3.131,9.925,9.925,0,0,1,2.72.773C2.712.761,2.708.745,2.7.734A1.6,1.6,0,0,0,2.463.422,1.444,1.444,0,0,0,.277,2.3l.047.058a16.028,16.028,0,0,1,3.168,7.665c.347,2.643.187,5.322.409,7.977A42.378,42.378,0,0,0,5.256,25.74,16.011,16.011,0,1,0,35.521,15.456m-5.9,5.723-2.887,1.247a6.3,6.3,0,0,1-.347,1.291l1.878,2.522a1.362,1.362,0,0,1-.055,1.693c-.167.195-.343.382-.526.565s-.374.358-.565.526a1.359,1.359,0,0,1-1.691.055L22.906,27.2a5.58,5.58,0,0,1-.632.206,6.481,6.481,0,0,1-.654.141l-1.247,2.889a1.352,1.352,0,0,1-1.492.8c-.249-.047-.5-.1-.752-.172s-.495-.141-.736-.226a1.356,1.356,0,0,1-.892-1.438l.362-3.127a6.148,6.148,0,0,1-.943-.94L12.8,25.69a1.356,1.356,0,0,1-1.437-.893c-.086-.242-.16-.487-.226-.737s-.125-.5-.172-.753a1.354,1.354,0,0,1,.795-1.493l2.887-1.247a6.031,6.031,0,0,1,.347-1.287l-1.878-2.526a1.362,1.362,0,0,1,.054-1.692c.168-.2.343-.382.526-.566s.374-.358.565-.526a1.359,1.359,0,0,1,1.691-.055l2.525,1.879a5.908,5.908,0,0,1,.631-.206,5.522,5.522,0,0,1,.654-.137l1.247-2.893a1.352,1.352,0,0,1,1.492-.8c.249.047.5.1.752.172s.495.141.736.226a1.356,1.356,0,0,1,.892,1.439l-.362,3.123a6.154,6.154,0,0,1,.943.943l3.121-.363a1.357,1.357,0,0,1,1.438.893c.085.242.16.487.226.737s.125.5.171.753a1.353,1.353,0,0,1-.795,1.493" transform="translate(0 -0.001)"/><path class="a" d="M145.428,34.057a7.994,7.994,0,0,0-.524-2.3,6.187,6.187,0,0,0-1.151-1.9,7.1,7.1,0,0,0-.841-.8l-.026-.019-.032-.02a9.116,9.116,0,0,0-1.644-1.249,15.924,15.924,0,0,0-2.737-1.276c-.194-.078-.394-.136-.608-.213-.136-.039-.291-.1-.427-.136a15.552,15.552,0,0,1-1.6-.628,7.5,7.5,0,0,1-1.643-.919,2.6,2.6,0,0,1-1.055-1.5,1.839,1.839,0,0,1,.078-.919,2.181,2.181,0,0,1,.938-1.179,3.06,3.06,0,0,1,2.387-.155,8.487,8.487,0,0,1,2.225,1.094c.213.136.421.278.621.434a3.1,3.1,0,0,0,1.915.66,3.071,3.071,0,0,0,1.9-5.484,12,12,0,0,0-8.656-2.434,10.038,10.038,0,0,0-3.4.881,8.458,8.458,0,0,0-2.7,1.994,7.737,7.737,0,0,0-1.643,2.8,8.341,8.341,0,0,0-.369,3.25,8.681,8.681,0,0,0,.524,2.3,6.557,6.557,0,0,0,1.158,1.9,8.166,8.166,0,0,0,.835.8l.039.019.019.039a9.351,9.351,0,0,0,1.663,1.23,15.708,15.708,0,0,0,2.717,1.276c.233.078.453.155.666.233.136.038.252.078.388.116.531.194,1.08.395,1.585.628a7.28,7.28,0,0,1,1.7.958,2.418,2.418,0,0,1,1.016,1.567,1.92,1.92,0,0,1-.446,1.464h-.02l-.026.038a1.962,1.962,0,0,1-.64.473l-.058.039-.077.019a4.226,4.226,0,0,1-1.779.078,6.5,6.5,0,0,1-2.407-.978c-.3-.207-.6-.421-.893-.647a3.056,3.056,0,0,0-3.629-.1l-.046.032a3.092,3.092,0,0,0-.155,4.94,11.91,11.91,0,0,0,8.766,2.5,9.809,9.809,0,0,0,3.4-.861,8.6,8.6,0,0,0,2.678-1.994,7.737,7.737,0,0,0,1.643-2.8,7.959,7.959,0,0,0,.369-3.25" transform="translate(-75.906 -9.043)"/><path class="a" d="M184.144,14.882h-1.022a3.068,3.068,0,0,0-3.073,3.075V39.832a3.073,3.073,0,0,0,3.073,3.075h1.022a3.073,3.073,0,0,0,3.073-3.075V17.957a3.068,3.068,0,0,0-3.073-3.075" transform="translate(-108.121 -8.933)"/><path class="a" d="M222.771,15.076h-15.1a3.077,3.077,0,0,0-3.073,3.075v.324a3.077,3.077,0,0,0,3.073,3.075h3.965v18.4a3.077,3.077,0,0,0,3.073,3.075h1.009a3.077,3.077,0,0,0,3.073-3.075v-18.4h3.979a3.072,3.072,0,0,0,3.073-3.075v-.324a3.072,3.072,0,0,0-3.073-3.075" transform="translate(-122.863 -9.049)"/><path class="a" d="M281.349,21.375a3.077,3.077,0,0,0,3.073-3.075v-.343a3.072,3.072,0,0,0-3.073-3.075h-13.6a3.072,3.072,0,0,0-3.072,3.075V39.832a3.076,3.076,0,0,0,3.072,3.075h13.6a3.077,3.077,0,0,0,3.073-3.075v-.343a3.077,3.077,0,0,0-3.073-3.075h-9.5V32.128H279a3.072,3.072,0,0,0,3.073-3.075v-.324A3.077,3.077,0,0,0,279,25.654h-7.148V21.375Z" transform="translate(-158.941 -8.933)"/><path class="b" d="M341.979,14.882h-13.6a3.072,3.072,0,0,0-3.072,3.075V39.832a3.077,3.077,0,0,0,3.072,3.075h1.029a3.073,3.073,0,0,0,3.073-3.075v-7.7h7.168a3.069,3.069,0,0,0,3.073-3.075V28.73a3.073,3.073,0,0,0-3.073-3.075h-7.168V21.375h9.5a3.077,3.077,0,0,0,3.073-3.075v-.343a3.073,3.073,0,0,0-3.073-3.075" transform="translate(-195.35 -8.933)"/><path class="b" d="M384.646,14.882h-1.029a3.073,3.073,0,0,0-3.073,3.075V39.832a3.077,3.077,0,0,0,3.073,3.075h1.029a3.077,3.077,0,0,0,3.073-3.075V17.957a3.073,3.073,0,0,0-3.073-3.075" transform="translate(-228.52 -8.933)"/><path class="b" d="M429.169,28.9c-.233-.932-.725-1.592-1.637-1.592H420.1a1.6,1.6,0,0,0-1.6,1.605v1.975a1.6,1.6,0,0,0,1.6,1.605h2.678a4.488,4.488,0,0,1-1.345,2.777,5.689,5.689,0,0,1-2.717,1.094,6.116,6.116,0,0,1-5.57-1.78,7.15,7.15,0,0,1-1.391-2.447,11.481,11.481,0,0,1,0-6.474,7.113,7.113,0,0,1,1.391-2.44,6.037,6.037,0,0,1,4.865-1.859,5.04,5.04,0,0,1,3.61,1.619,3.156,3.156,0,0,0,2.316,1.062h.168a3.078,3.078,0,0,0,2.316-5.1,11.806,11.806,0,0,0-3.933-2.881,15.317,15.317,0,0,0-9.438-.745,11.265,11.265,0,0,0-5.512,3.386,13.69,13.69,0,0,0-1.371,1.839.787.787,0,0,1-.1.175,17.117,17.117,0,0,0,0,16.392.425.425,0,0,1,.1.156,14.078,14.078,0,0,0,1.371,1.838,11.257,11.257,0,0,0,5.512,3.386,15.453,15.453,0,0,0,9.438-.725,11.412,11.412,0,0,0,6.159-6.726,13.76,13.76,0,0,0,.524-6.138" transform="translate(-242.591 -8.942)"/></g></g></svg>